<svg preserveAspectRatio="none" overflow="visible" style="display: block;" width="51.9861" height="52.019" viewBox="0 0 51.9861 52.019" fill="none" xmlns="http://www.w3.org/2000/svg">
<g id="Capa_1" clip-path="url(#clip0_81_1973)">
<path id="Vector" d="M2.58829 31.2487L0.00423553 33.8327L2.58829 36.4168L5.17235 33.8327L2.58829 31.2487Z" fill="black"/>
<path id="Vector_2" d="M2.58766 25.978L0.00360129 28.5621L2.58766 31.1461L5.17172 28.5621L2.58766 25.978Z" fill="black"/>
<path id="Vector_3" d="M2.58729 15.6409L0.00322787 18.2249L2.58729 20.809L5.17135 18.2249L2.58729 15.6409Z" fill="black"/>
<path id="Vector_4" d="M2.58392 20.8086L-0.000138199 23.3927L2.58392 25.9768L5.16798 23.3927L2.58392 20.8086Z" fill="black"/>
<path id="Vector_5" d="M2.58237 36.4469L-0.00168472 39.0309L2.58237 41.615L5.16643 39.0309L2.58237 36.4469Z" fill="black"/>
<path id="Vector_6" d="M2.58584 41.6489L0.0017785 44.233L2.58584 46.8171L5.1699 44.233L2.58584 41.6489Z" fill="black"/>
<path id="Vector_7" d="M2.5838 46.851L-0.000253641 49.4351L2.58381 52.0191L5.16786 49.4351L2.5838 46.851Z" fill="black"/>
<path id="Vector_8" d="M7.80651 15.6367L5.22245 18.2208L7.80651 20.8049L10.3906 18.2208L7.80651 15.6367Z" fill="black"/>
<path id="Vector_9" d="M7.80608 20.8404L5.22203 23.4245L7.80608 26.0085L10.3901 23.4245L7.80608 20.8404Z" fill="black"/>
<path id="Vector_10" d="M12.9716 20.8328L10.3875 23.4169L12.9716 26.0009L15.5556 23.4169L12.9716 20.8328Z" fill="black"/>
<path id="Vector_11" d="M18.1917 26.0612L15.6076 28.6452L18.1917 31.2293L20.7758 28.6452L18.1917 26.0612Z" fill="black"/>
<path id="Vector_12" d="M12.984 25.9789L10.4 28.5629L12.984 31.147L15.5681 28.5629L12.984 25.9789Z" fill="black"/>
<path id="Vector_13" d="M18.165 31.228L15.581 33.812L18.165 36.3961L20.7491 33.812L18.165 31.228Z" fill="black"/>
<path id="Vector_14" d="M33.7984 31.2412L31.2144 33.8252L33.7984 36.4093L36.3825 33.8252L33.7984 31.2412Z" fill="black"/>
<path id="Vector_15" d="M33.8005 26.0446L31.2164 28.6287L33.8005 31.2127L36.3845 28.6287L33.8005 26.0446Z" fill="black"/>
<path id="Vector_16" d="M33.8029 15.6389L31.2189 18.2229L33.8029 20.807L36.387 18.2229L33.8029 15.6389Z" fill="black"/>
<path id="Vector_17" d="M33.7995 20.8066L31.2155 23.3907L33.7995 25.9747L36.3836 23.3907L33.7995 20.8066Z" fill="black"/>
<path id="Vector_18" d="M33.798 36.4449L31.2139 39.0289L33.798 41.613L36.3821 39.0289L33.798 36.4449Z" fill="black"/>
<path id="Vector_19" d="M33.8015 41.6469L31.2174 44.231L33.8015 46.815L36.3855 44.231L33.8015 41.6469Z" fill="black"/>
<path id="Vector_20" d="M33.7994 46.8545L31.2154 49.4386L33.7994 52.0226L36.3835 49.4386L33.7994 46.8545Z" fill="black"/>
<path id="Vector_21" d="M28.5954 15.6423L26.0113 18.2264L28.5954 20.8104L31.1794 18.2264L28.5954 15.6423Z" fill="black"/>
<path id="Vector_22" d="M28.5975 20.8156L26.0134 23.3996L28.5975 25.9837L31.1815 23.3996L28.5975 20.8156Z" fill="black"/>
<path id="Vector_23" d="M23.3993 20.8097L20.8152 23.3937L23.3993 25.9778L25.9834 23.3937L23.3993 20.8097Z" fill="black"/>
<path id="Vector_24" d="M23.3947 26.0422L20.8107 28.6262L23.3947 31.2103L25.9788 28.6262L23.3947 26.0422Z" fill="black"/>
<path id="Vector_25" d="M7.78584 25.9784L5.20178 28.5625L7.78584 31.1466L10.3699 28.5625L7.78584 25.9784Z" fill="black"/>
<path id="Vector_26" d="M7.7875 10.4392L5.20344 13.0233L7.7875 15.6073L10.3716 13.0233L7.7875 10.4392Z" fill="black"/>
<path id="Vector_27" d="M7.78581 31.232L5.20175 33.816L7.78581 36.4001L10.3699 33.816L7.78581 31.232Z" fill="black"/>
<path id="Vector_28" d="M7.78056 36.4473L5.1965 39.0314L7.78056 41.6154L10.3646 39.0314L7.78056 36.4473Z" fill="black"/>
<path id="Vector_29" d="M7.78402 41.6494L5.19996 44.2334L7.78402 46.8175L10.3681 44.2334L7.78402 41.6494Z" fill="black"/>
<path id="Vector_30" d="M13.0074 10.4523L10.4233 13.0363L13.0074 15.6204L15.5914 13.0363L13.0074 10.4523Z" fill="black"/>
<path id="Vector_31" d="M12.9875 15.6433L10.4035 18.2274L12.9875 20.8114L15.5716 18.2274L12.9875 15.6433Z" fill="black"/>
<path id="Vector_32" d="M18.2029 15.6376L15.6188 18.2217L18.2029 20.8057L20.7869 18.2217L18.2029 15.6376Z" fill="black"/>
<path id="Vector_33" d="M18.1878 20.8115L15.6038 23.3956L18.1878 25.9796L20.7719 23.3956L18.1878 20.8115Z" fill="black"/>
<path id="Vector_34" d="M39.0025 26.0466L36.4185 28.6307L39.0025 31.2148L41.5866 28.6307L39.0025 26.0466Z" fill="black"/>
<path id="Vector_35" d="M39.0016 20.8087L36.4176 23.3927L39.0016 25.9768L41.5857 23.3927L39.0016 20.8087Z" fill="black"/>
<path id="Vector_36" d="M39.0015 10.4333L36.4175 13.0174L39.0015 15.6014L41.5856 13.0174L39.0015 10.4333Z" fill="black"/>
<path id="Vector_37" d="M39.005 15.6409L36.4209 18.225L39.005 20.809L41.589 18.225L39.005 15.6409Z" fill="black"/>
<path id="Vector_38" d="M39.006 31.2432L36.4219 33.8273L39.006 36.4113L41.59 33.8273L39.006 31.2432Z" fill="black"/>
<path id="Vector_39" d="M39.0001 36.4469L36.416 39.0309L39.0001 41.615L41.5841 39.0309L39.0001 36.4469Z" fill="black"/>
<path id="Vector_40" d="M39.0035 41.6435L36.4195 44.2275L39.0035 46.8116L41.5876 44.2275L39.0035 41.6435Z" fill="black"/>
<path id="Vector_41" d="M33.7995 10.4368L31.2154 13.0209L33.7995 15.6049L36.3835 13.0209L33.7995 10.4368Z" fill="black"/>
<path id="Vector_42" d="M12.9861 5.2337L10.402 7.81776L12.9861 10.4018L15.5702 7.81776L12.9861 5.2337Z" fill="black"/>
<path id="Vector_43" d="M13.005 31.2278L10.421 33.8119L13.005 36.3959L15.5891 33.8119L13.005 31.2278Z" fill="black"/>
<path id="Vector_44" d="M13.0053 36.4487L10.4212 39.0327L13.0053 41.6168L15.5893 39.0327L13.0053 36.4487Z" fill="black"/>
<path id="Vector_45" d="M18.2014 5.23346L15.6174 7.81752L18.2014 10.4016L20.7855 7.81752L18.2014 5.23346Z" fill="black"/>
<path id="Vector_46" d="M18.2049 10.4355L15.6208 13.0196L18.2049 15.6036L20.789 13.0196L18.2049 10.4355Z" fill="black"/>
<path id="Vector_47" d="M23.3688 10.4373L20.7847 13.0213L23.3688 15.6054L25.9528 13.0213L23.3688 10.4373Z" fill="black"/>
<path id="Vector_48" d="M23.3903 15.6154L20.8063 18.1994L23.3903 20.7835L25.9744 18.1994L23.3903 15.6154Z" fill="black"/>
<path id="Vector_49" d="M44.2053 20.8091L41.6212 23.3931L44.2053 25.9772L46.7894 23.3931L44.2053 20.8091Z" fill="black"/>
<path id="Vector_50" d="M44.2032 15.6413L41.6191 18.2254L44.2032 20.8094L46.7872 18.2254L44.2032 15.6413Z" fill="black"/>
<path id="Vector_51" d="M44.2011 5.22003L41.617 7.80409L44.2011 10.3881L46.7851 7.80409L44.2011 5.22003Z" fill="black"/>
<path id="Vector_52" d="M44.1997 10.4338L41.6156 13.0178L44.1997 15.6019L46.7838 13.0178L44.1997 10.4338Z" fill="black"/>
<path id="Vector_53" d="M44.2007 26.0471L41.6167 28.6311L44.2007 31.2152L46.7848 28.6311L44.2007 26.0471Z" fill="black"/>
<path id="Vector_54" d="M44.2042 31.2436L41.6201 33.8277L44.2042 36.4118L46.7882 33.8277L44.2042 31.2436Z" fill="black"/>
<path id="Vector_55" d="M44.2037 36.4473L41.6197 39.0314L44.2037 41.6154L46.7878 39.0314L44.2037 36.4473Z" fill="black"/>
<path id="Vector_56" d="M39.0029 5.21411L36.4188 7.79817L39.0029 10.3822L41.5869 7.79817L39.0029 5.21411Z" fill="black"/>
<path id="Vector_57" d="M18.206 0.00096974L15.622 2.58503L18.206 5.16909L20.7901 2.58503L18.206 0.00096974Z" fill="black"/>
<path id="Vector_58" d="M23.3699 -0.00276793L20.7858 2.58129L23.3699 5.16535L25.954 2.58129L23.3699 -0.00276793Z" fill="black"/>
<path id="Vector_59" d="M23.3957 5.23227L20.8117 7.81633L23.3957 10.4004L25.9798 7.81633L23.3957 5.23227Z" fill="black"/>
<path id="Vector_60" d="M28.5933 5.21554L26.0092 7.7996L28.5933 10.3837L31.1773 7.7996L28.5933 5.21554Z" fill="black"/>
<path id="Vector_61" d="M28.5974 10.4348L26.0133 13.0188L28.5974 15.6029L31.1814 13.0188L28.5974 10.4348Z" fill="black"/>
<path id="Vector_62" d="M49.4062 15.6168L46.8221 18.2009L49.4062 20.7849L51.9902 18.2009L49.4062 15.6168Z" fill="black"/>
<path id="Vector_63" d="M49.4073 10.4358L46.8232 13.0198L49.4073 15.6039L51.9913 13.0198L49.4073 10.4358Z" fill="black"/>
<path id="Vector_64" d="M49.4084 0.00123105L46.8243 2.58529L49.4084 5.16935L51.9924 2.58529L49.4084 0.00123105Z" fill="black"/>
<path id="Vector_65" d="M49.4031 5.21657L46.8191 7.80063L49.4031 10.3847L51.9872 7.80062L49.4031 5.21657Z" fill="black"/>
<path id="Vector_66" d="M49.4074 20.8111L46.8233 23.3952L49.4074 25.9792L51.9914 23.3952L49.4074 20.8111Z" fill="black"/>
<path id="Vector_67" d="M49.4083 26.0436L46.8242 28.6277L49.4083 31.2117L51.9923 28.6277L49.4083 26.0436Z" fill="black"/>
<path id="Vector_68" d="M49.4062 31.2457L46.8222 33.8297L49.4062 36.4138L51.9903 33.8297L49.4062 31.2457Z" fill="black"/>
<path id="Vector_69" d="M44.2038 0.0296184L41.6197 2.61368L44.2038 5.19774L46.7878 2.61368L44.2038 0.0296184Z" fill="black"/>
</g>
<defs>
<clipPath id="clip0_81_1973">
<rect width="51.9861" height="52.019" fill="white"/>
</clipPath>
</defs>
</svg>
